<svg xmlns="http://www.w3.org/2000/svg" width="200" height="200" viewBox="0 0 200 200"><path fill="#e4e4e4" d="M100 20a80 80 0 1 1-80 80 80.1 80.1 0 0 1 80-80m0-20a100 100 0 1 0 100 100A100 100 0 0 0 100 0z"/><path fill="#e4e4e4" d="M88.2 138.8a3.4 3.4 0 0 1-1.3-2.8v-24.2H63.7a3.8 3.8 0 0 1-4-4V91.5a3.9 3.9 0 0 1 1.1-2.9 4 4 0 0 1 2.9-1.2h23.2V64a3.5 3.5 0 0 1 1.3-2.8A3.6 3.6 0 0 1 91 60h18.3a4.2 4.2 0 0 1 2.9 1.2 4.1 4.1 0 0 1 1.1 2.8v23.4h23a4.2 4.2 0 0 1 2.9 1.2 4.4 4.4 0 0 1 1.1 2.9v16.3a4.4 4.4 0 0 1-1.1 2.9 4.1 4.1 0 0 1-2.9 1.1h-23V136a3.9 3.9 0 0 1-1.1 2.8 3.8 3.8 0 0 1-2.9 1.2H91a3.3 3.3 0 0 1-2.8-1.2z"/></svg>