<svg xmlns="http://www.w3.org/2000/svg" width="200" height="200" viewBox="0 0 200 200"><path fill="#3c342b" d="M100 20a80 80 0 1 1-80 80 80.1 80.1 0 0 1 80-80m0-20a100 100 0 1 0 100 100A100 100 0 0 0 100 0z"/><path fill="#3c342b" d="M93.5 134.8a3.6 3.6 0 0 1-2.8 1.2 3.8 3.8 0 0 1-2.9-1.2m0 0l-32.2-32.3a3.6 3.6 0 0 1-1.2-2.8 3.8 3.8 0 0 1 1.2-2.9l11.5-11.5a4 4 0 0 1 2.9-1.2 3.6 3.6 0 0 1 2.8 1.2l16.5 16.4 36.5-36.5a3.8 3.8 0 0 1 2.8-1.2 3.8 3.8 0 0 1 2.9 1.2l12.9 13a3.6 3.6 0 0 1 1.2 2.8 4 4 0 0 1-1.2 2.9l-50.9 50.9"/></svg>