<svg xmlns="http://www.w3.org/2000/svg" width="200" height="200" viewBox="0 0 200 200"><path fill="#c33c33" d="M100 20a80 80 0 1 1-80 80 80.1 80.1 0 0 1 80-80m0-20a100 100 0 1 0 100 100A100 100 0 0 0 100 0z"/><path fill="#c33c33" d="M89.1 107.6a2.7 2.7 0 0 1-.8-1.9V66.8a2.7 2.7 0 0 1 .8-1.9 2.7 2.7 0 0 1 2-.9h17.8a2.7 2.7 0 0 1 2 .9 2.7 2.7 0 0 1 .8 1.9v38.9a2.7 2.7 0 0 1-.8 1.9 2.6 2.6 0 0 1-2 .8H91.1a2.6 2.6 0 0 1-2-.8zm0 27.5a2.7 2.7 0 0 1-.8-1.9v-17.9a2.7 2.7 0 0 1 .8-1.9 2.7 2.7 0 0 1 2-.9h17.8a2.7 2.7 0 0 1 2 .9 2.7 2.7 0 0 1 .8 1.9v17.9a2.7 2.7 0 0 1-.8 1.9 2.7 2.7 0 0 1-2 .9H91.1a2.7 2.7 0 0 1-2-.9z"/></svg>