<svg xmlns="http://www.w3.org/2000/svg" width="200" height="200" viewBox="0 0 200 200"><path fill="#c33c33" d="M100 0a100 100 0 1 0 100 100A100 100 0 0 0 100 0zm0 179.79A79.79 79.79 0 1 1 179.79 100 79.8 79.8 0 0 1 100 179.79z"/><path fill="#c33c33" d="M89.11 107.6a2.65 2.65 0 0 1-.82-1.95V66.82A2.82 2.82 0 0 1 91.06 64h17.88a2.82 2.82 0 0 1 2.77 2.78v38.83a2.8 2.8 0 0 1-2.77 2.77H91.06a2.66 2.66 0 0 1-1.95-.78zm0 27.53a2.63 2.63 0 0 1-.82-1.95v-17.87a2.63 2.63 0 0 1 .82-2 2.67 2.67 0 0 1 2-.83h17.88a2.67 2.67 0 0 1 2 .83 2.63 2.63 0 0 1 .82 2v17.87a2.63 2.63 0 0 1-.82 1.95 2.67 2.67 0 0 1-2 .83H91.06a2.67 2.67 0 0 1-1.95-.83z"/></svg>