<svg xmlns="http://www.w3.org/2000/svg"><symbol id="add-to-cart" viewBox="0 0 200 200"><path d="M100 0a100 100 0 1 0 100 100A100 100 0 0 0 100 0zm0 179.79A79.79 79.79 0 1 1 179.79 100 79.8 79.8 0 0 1 100 179.79z"/><path d="M88.15 138.85A3.89 3.89 0 0 1 87 136v-24.15H63.7a4.1 4.1 0 0 1-4.05-4v-16.4a4.1 4.1 0 0 1 4.05-4H87V64a4.1 4.1 0 0 1 4-4h18.3a4.1 4.1 0 0 1 4 4v23.4h23a4.1 4.1 0 0 1 4 4v16.4a4.1 4.1 0 0 1-4 4h-23V136a4.1 4.1 0 0 1-4 4.05H91a3.89 3.89 0 0 1-2.85-1.2z"/></symbol><symbol id="complete" viewBox="0 0 200 200"><path d="M100 0a100 100 0 1 0 100 100A100 100 0 0 0 100 0zm0 179.79A79.79 79.79 0 1 1 179.79 100 79.8 79.8 0 0 1 100 179.79z"/><path d="M93.53 134.79a4.09 4.09 0 0 1-5.73 0m0 0l-32.24-32.24a4.09 4.09 0 0 1 0-5.73l11.56-11.56a4.09 4.09 0 0 1 5.73 0l16.44 16.44 36.48-36.49a4.09 4.09 0 0 1 5.73 0l12.94 12.94a4.09 4.09 0 0 1 0 5.73l-50.91 50.91"/></symbol><symbol id="instagram" viewBox="0 0 200 200"><path d="M100 0a100 100 0 1 0 100 100A100 100 0 0 0 100 0zm0 179.79A79.77 79.77 0 0 1 34.38 54.64h131.24A79.77 79.77 0 0 1 100 179.79z"/><path d="M100 59.9a40.1 40.1 0 1 0 40.1 40.1A40.1 40.1 0 0 0 100 59.9zm0 60a19.88 19.88 0 1 1 19.88-19.9A19.88 19.88 0 0 1 100 119.88z"/></symbol><symbol id="contact-us" viewBox="0 0 200 200"><path d="M100 0a100 100 0 1 0 100 100A100 100 0 0 0 100 0zm50.05 37.89L100 87.94l-50-50a79.68 79.68 0 0 1 100.1 0zM100 179.79A79.79 79.79 0 0 1 36.05 52.28l56.83 56.82a10 10 0 0 0 14.07-.16l.17.17L164 52.28a79.79 79.79 0 0 1-64 127.51z"/></symbol><symbol id="error" viewBox="0 0 200 200"><path fill="#c33c33" d="M100 0a100 100 0 1 0 100 100A100 100 0 0 0 100 0zm0 179.79A79.79 79.79 0 1 1 179.79 100 79.8 79.8 0 0 1 100 179.79z"/><path fill="#c33c33" d="M89.11 107.6a2.65 2.65 0 0 1-.82-1.95V66.82A2.82 2.82 0 0 1 91.06 64h17.88a2.82 2.82 0 0 1 2.77 2.78v38.83a2.8 2.8 0 0 1-2.77 2.77H91.06a2.66 2.66 0 0 1-1.95-.78zm0 27.53a2.63 2.63 0 0 1-.82-1.95v-17.87a2.63 2.63 0 0 1 .82-2 2.67 2.67 0 0 1 2-.83h17.88a2.67 2.67 0 0 1 2 .83 2.63 2.63 0 0 1 .82 2v17.87a2.63 2.63 0 0 1-.82 1.95 2.67 2.67 0 0 1-2 .83H91.06a2.67 2.67 0 0 1-1.95-.83z"/></symbol><symbol id="see-more" viewBox="0 0 200 200"><path d="M128 90.34A18.35 18.35 0 0 1 112.65 62a40.11 40.11 0 1 0 25.4 25.4A18.34 18.34 0 0 1 128 90.34z"/><path d="M100 0a100 100 0 1 0 100 100A100 100 0 0 0 100 0zm0 179.79A79.79 79.79 0 1 1 179.79 100 79.8 79.8 0 0 1 100 179.79z"/></symbol></svg>