<svg xmlns="http://www.w3.org/2000/svg"><symbol id="add-to-cart" viewBox="0 0 200 200"><path fill="#3c342b" d="M100 20a80 80 0 1 1-80 80 80.1 80.1 0 0 1 80-80m0-20a100 100 0 1 0 100 100A100 100 0 0 0 100 0z"/><path fill="#3c342b" d="M88.2 138.8a3.4 3.4 0 0 1-1.3-2.8v-24.2H63.7a3.8 3.8 0 0 1-4-4V91.5a3.9 3.9 0 0 1 1.1-2.9 4 4 0 0 1 2.9-1.2h23.2V64a3.5 3.5 0 0 1 1.3-2.8A3.6 3.6 0 0 1 91 60h18.3a4.2 4.2 0 0 1 2.9 1.2 4.1 4.1 0 0 1 1.1 2.8v23.4h23a4.2 4.2 0 0 1 2.9 1.2 4.4 4.4 0 0 1 1.1 2.9v16.3a4.4 4.4 0 0 1-1.1 2.9 4.1 4.1 0 0 1-2.9 1.1h-23V136a3.9 3.9 0 0 1-1.1 2.8 3.8 3.8 0 0 1-2.9 1.2H91a3.3 3.3 0 0 1-2.8-1.2z"/></symbol><symbol id="complete" viewBox="0 0 200 200"><path fill="#3c342b" d="M100 20a80 80 0 1 1-80 80 80.1 80.1 0 0 1 80-80m0-20a100 100 0 1 0 100 100A100 100 0 0 0 100 0z"/><path fill="#3c342b" d="M93.5 134.8a3.6 3.6 0 0 1-2.8 1.2 3.8 3.8 0 0 1-2.9-1.2m0 0l-32.2-32.3a3.6 3.6 0 0 1-1.2-2.8 3.8 3.8 0 0 1 1.2-2.9l11.5-11.5a4 4 0 0 1 2.9-1.2 3.6 3.6 0 0 1 2.8 1.2l16.5 16.4 36.5-36.5a3.8 3.8 0 0 1 2.8-1.2 3.8 3.8 0 0 1 2.9 1.2l12.9 13a3.6 3.6 0 0 1 1.2 2.8 4 4 0 0 1-1.2 2.9l-50.9 50.9"/></symbol><symbol id="contact-us" viewBox="0 0 200 200"><path fill="#3c342b" d="M100 20a80 80 0 1 1-80 80 80.1 80.1 0 0 1 80-80m0-20a100 100 0 1 0 100 100A100 100 0 0 0 100 0z"/><path fill="none" stroke="#3c342b" stroke-linejoin="round" stroke-width="20" d="M29.3 29.3L100 100l70.7-70.7"/></symbol><symbol id="error" viewBox="0 0 200 200"><path fill="#c33c33" d="M100 20a80 80 0 1 1-80 80 80.1 80.1 0 0 1 80-80m0-20a100 100 0 1 0 100 100A100 100 0 0 0 100 0z"/><path fill="#c33c33" d="M89.1 107.6a2.7 2.7 0 0 1-.8-1.9V66.8a2.7 2.7 0 0 1 .8-1.9 2.7 2.7 0 0 1 2-.9h17.8a2.7 2.7 0 0 1 2 .9 2.7 2.7 0 0 1 .8 1.9v38.9a2.7 2.7 0 0 1-.8 1.9 2.6 2.6 0 0 1-2 .8H91.1a2.6 2.6 0 0 1-2-.8zm0 27.5a2.7 2.7 0 0 1-.8-1.9v-17.9a2.7 2.7 0 0 1 .8-1.9 2.7 2.7 0 0 1 2-.9h17.8a2.7 2.7 0 0 1 2 .9 2.7 2.7 0 0 1 .8 1.9v17.9a2.7 2.7 0 0 1-.8 1.9 2.7 2.7 0 0 1-2 .9H91.1a2.7 2.7 0 0 1-2-.9z"/></symbol><symbol id="instagram" viewBox="0 0 200 200"><path fill="#3c342b" d="M100 20a80 80 0 1 1-80 80 80.1 80.1 0 0 1 80-80m0-20a100 100 0 1 0 100 100A100 100 0 0 0 100 0z"/><path fill="#3c342b" d="M100 79.9A20.1 20.1 0 1 1 79.9 100 20.1 20.1 0 0 1 100 79.9m0-20a40.1 40.1 0 1 0 40.1 40.1A40.2 40.2 0 0 0 100 59.9zm-83.6-5.3h167.2s-66.2-119.1-167.2 0z"/></symbol><symbol id="see-more" viewBox="0 0 200 200"><path fill="#3c342b" d="M100 20a80 80 0 1 1-80 80 80.1 80.1 0 0 1 80-80m0-20a100 100 0 1 0 100 100A100 100 0 0 0 100 0z"/><path fill="#3c342b" d="M128 90.3A18.3 18.3 0 0 1 109.7 72a17.9 17.9 0 0 1 3-10 38.5 38.5 0 0 0-12.7-2.1 40.1 40.1 0 1 0 40.1 40.1 38.5 38.5 0 0 0-2.1-12.7 17.9 17.9 0 0 1-10 3z"/></symbol></svg>