<svg xmlns="http://www.w3.org/2000/svg" width="32" height="32" viewBox="0 0 32 32"><path fill="#C5C2B9" d="M16 0C7.2 0 0 7.2 0 16s7.2 16 16 16 16-7.2 16-16S24.8 0 16 0zm1.9 28.1l6.2-6.2c.1-.1.2-.3.2-.5s-.1-.4-.2-.5l-2-2c-.1-.1-.3-.2-.5-.2s-.4.1-.5.2l-6.5 6.5-2.6-2.6 5.9-5.9c.1-.1.2-.3.2-.5s-.1-.4-.2-.5L16 14c-.1-.1-.3-.2-.5-.2s-.4.1-.5.2l-5.9 5.9-2.6-2.6 6.4-6.4c.1-.1.2-.3.2-.5s-.1-.4-.2-.5l-2-2c-.1-.1-.3-.2-.5-.2s-.4.1-.5.3L4 13.9C5 8.1 10 3.7 16.1 3.7c6.8 0 12.3 5.5 12.3 12.3-.1 6.1-4.6 11.2-10.5 12.1z"/></svg>