<?xml version="1.0" encoding="utf-8"?>
<!-- Generator: Adobe Illustrator 22.0.1, SVG Export Plug-In . SVG Version: 6.00 Build 0)  -->
<svg version="1.1" xmlns="http://www.w3.org/2000/svg" xmlns:xlink="http://www.w3.org/1999/xlink" x="0px" y="0px" width="64px"
	 height="64px" viewBox="0 0 64 64" enable-background="new 0 0 64 64" xml:space="preserve">
<g id="Layer_1">
	<path fill="#C5C2B9" d="M32,0C14.3,0,0,14.3,0,32s14.3,32,32,32s32-14.3,32-32S49.7,0,32,0z M35.8,56.2l12.4-12.4
		c0.3-0.3,0.5-0.6,0.5-1c0-0.4-0.1-0.7-0.4-1l-4-4c-0.3-0.3-0.6-0.4-1-0.4c-0.4,0-0.8,0.1-1,0.4L29.1,50.8l-5.2-5.2l11.9-11.9
		c0.3-0.3,0.4-0.6,0.4-1c0-0.4-0.1-0.8-0.4-1L32.1,28c-0.3-0.3-0.6-0.4-1-0.4c-0.4,0-0.8,0.1-1,0.4L18.1,39.8L13,34.7L25.8,22
		c0.3-0.3,0.5-0.6,0.5-1c0-0.4-0.1-0.7-0.4-1l-4-4c-0.3-0.3-0.6-0.4-1-0.4c-0.4,0-0.8,0.1-1,0.4L7.8,27.8C9.8,16.2,19.9,7.5,32,7.5
		c13.5,0,24.5,11,24.5,24.5C56.5,44.2,47.6,54.4,35.8,56.2z"/>
</g>
<g id="Layer_2">
</g>
</svg>
