<?xml version="1.0" encoding="utf-8"?>
<!-- Generator: Adobe Illustrator 22.0.1, SVG Export Plug-In . SVG Version: 6.00 Build 0)  -->
<svg version="1.1" xmlns="http://www.w3.org/2000/svg" xmlns:xlink="http://www.w3.org/1999/xlink" x="0px" y="0px" width="16px"
	 height="16px" viewBox="0 0 16 16" enable-background="new 0 0 16 16" xml:space="preserve">
<g id="Layer_1">
	<path fill="#C5C2B9" d="M7.9,0C3.5,0,0,3.5,0,7.9s3.5,7.9,7.9,7.9s7.9-3.5,7.9-7.9S12.3,0,7.9,0z M8.9,13.9l3.1-3.1
		c0.1-0.1,0.1-0.2,0.1-0.3c0-0.1,0-0.2-0.1-0.3l-1-1c-0.1-0.1-0.2-0.1-0.3-0.1c-0.1,0-0.2,0-0.3,0.1l-3.2,3.2l-1.3-1.3l2.9-2.9
		c0.1-0.1,0.1-0.2,0.1-0.3c0-0.1,0-0.2-0.1-0.3L7.9,6.9C7.9,6.8,7.8,6.8,7.7,6.8c-0.1,0-0.2,0-0.3,0.1L4.5,9.8L3.2,8.6l3.1-3.1
		c0.1-0.1,0.1-0.2,0.1-0.3c0-0.1,0-0.2-0.1-0.3l-1-1C5.3,3.9,5.2,3.8,5.1,3.8c-0.1,0-0.2,0-0.3,0.1L1.9,6.9c0.5-2.9,3-5,6-5
		c3.3,0,6.1,2.7,6.1,6.1C14,10.9,11.7,13.4,8.9,13.9z"/>
</g>
<g id="Layer_2">
</g>
</svg>
