<svg xmlns="http://www.w3.org/2000/svg" width="64" height="64" viewBox="0 0 64 64"><path d="M32 0a32 32 0 1 0 32 32A32 32 0 0 0 32 0zm3.8 56.2l12.5-12.4a1.3 1.3 0 0 0 .4-1 1.5 1.5 0 0 0-.4-1.1l-4-3.9a1.4 1.4 0 0 0-1-.5 1.6 1.6 0 0 0-1.1.5l-13.1 13-5.2-5.2 11.9-11.9a1.3 1.3 0 0 0 .4-1 1.5 1.5 0 0 0-.4-1.1L32.1 28a1.6 1.6 0 0 0-1.1-.5 1.4 1.4 0 0 0-1 .5L18.1 39.8 13 34.7 25.8 22a1.5 1.5 0 0 0 .4-1.1 1.3 1.3 0 0 0-.4-1l-4-4a1.3 1.3 0 0 0-1-.4 1.5 1.5 0 0 0-1.1.4L7.8 27.8a24.5 24.5 0 1 1 28 28.4z"/></svg>