<?xml version="1.0" encoding="utf-8"?>
<!-- Generator: Adobe Illustrator 22.0.1, SVG Export Plug-In . SVG Version: 6.00 Build 0)  -->
<svg version="1.1" xmlns="http://www.w3.org/2000/svg" xmlns:xlink="http://www.w3.org/1999/xlink" x="0px" y="0px" width="256px"
	 height="256px" viewBox="0 0 256 256" enable-background="new 0 0 256 256" xml:space="preserve">
<g id="Layer_1">
	<path fill="#C5C2B9" d="M128,0C57.3,0,0,57.3,0,128s57.3,128,128,128s128-57.3,128-128S198.7,0,128,0z M143.3,224.9l49.7-49.7
		c1.2-1.2,1.8-2.6,1.9-4.1c0.1-1.6-0.5-2.9-1.7-4.1l-16-16c-1.2-1.2-2.6-1.8-4.2-1.8c-1.6,0-3,0.6-4.2,1.8l-52.2,52.2l-21-21
		l47.4-47.4c1.2-1.2,1.8-2.6,1.8-4.2c0-1.6-0.6-3-1.8-4.2l-14.7-14.7c-1.2-1.2-2.6-1.8-4.2-1.8c-1.6,0-3,0.6-4.2,1.8l-47.4,47.4
		l-20.5-20.5l51-51c1.2-1.2,1.8-2.6,1.9-4.1c0.1-1.6-0.5-2.9-1.7-4.1l-16-16c-1.2-1.2-2.6-1.8-4.2-1.8c-1.6,0-3,0.6-4.2,1.8
		l-47.5,47.5c8-46.2,48.2-81.3,96.7-81.3c54.2,0,98.1,43.9,98.1,98.1C226.1,177,190.2,217.6,143.3,224.9z"/>
</g>
<g id="Layer_2">
</g>
</svg>
