<svg xmlns="http://www.w3.org/2000/svg" width="16" height="16" viewBox="0 0 16 16"><path fill="#C5C2B9" d="M7.9 0C3.5 0 0 3.5 0 7.9s3.5 7.9 7.9 7.9 7.9-3.5 7.9-7.9S12.3 0 7.9 0zm1 13.9l3.1-3.1c.1-.1.1-.2.1-.3 0-.1 0-.2-.1-.3l-1-1c-.1-.1-.2-.1-.3-.1-.1 0-.2 0-.3.1l-3.2 3.2-1.3-1.3 2.9-2.9c.1-.1.1-.2.1-.3 0-.1 0-.2-.1-.3l-.9-.7c0-.1-.1-.1-.2-.1s-.2 0-.3.1L4.5 9.8 3.2 8.6l3.1-3.1c.1-.1.1-.2.1-.3 0-.1 0-.2-.1-.3l-1-1s-.1-.1-.2-.1-.2 0-.3.1l-2.9 3c.5-2.9 3-5 6-5C11.2 1.9 14 4.6 14 8c0 2.9-2.3 5.4-5.1 5.9z"/></svg>