<svg xmlns="http://www.w3.org/2000/svg" width="256" height="256" viewBox="0 0 256 256"><path fill="#C5C2B9" d="M128 0C57.3 0 0 57.3 0 128s57.3 128 128 128 128-57.3 128-128S198.7 0 128 0zm15.3 224.9l49.7-49.7c1.2-1.2 1.8-2.6 1.9-4.1.1-1.6-.5-2.9-1.7-4.1l-16-16c-1.2-1.2-2.6-1.8-4.2-1.8s-3 .6-4.2 1.8l-52.2 52.2-21-21 47.4-47.4c1.2-1.2 1.8-2.6 1.8-4.2s-.6-3-1.8-4.2l-14.7-14.7c-1.2-1.2-2.6-1.8-4.2-1.8s-3 .6-4.2 1.8l-47.4 47.4L52 138.6l51-51c1.2-1.2 1.8-2.6 1.9-4.1.1-1.6-.5-2.9-1.7-4.1l-16-16c-1.2-1.2-2.6-1.8-4.2-1.8s-3 .6-4.2 1.8l-47.5 47.5c8-46.2 48.2-81.3 96.7-81.3 54.2 0 98.1 43.9 98.1 98.1 0 49.3-35.9 89.9-82.8 97.2z"/></svg>