<svg xmlns="http://www.w3.org/2000/svg" width="64" height="64" viewBox="0 0 64 64"><path fill="#C5C2B9" d="M32 0C14.3 0 0 14.3 0 32s14.3 32 32 32 32-14.3 32-32S49.7 0 32 0zm3.8 56.2l12.4-12.4c.3-.3.5-.6.5-1s-.1-.7-.4-1l-4-4c-.3-.3-.6-.4-1-.4s-.8.1-1 .4l-13.2 13-5.2-5.2 11.9-11.9c.3-.3.4-.6.4-1s-.1-.8-.4-1L32.1 28c-.3-.3-.6-.4-1-.4s-.8.1-1 .4l-12 11.8-5.1-5.1L25.8 22c.3-.3.5-.6.5-1s-.1-.7-.4-1l-4-4c-.3-.3-.6-.4-1-.4s-.8.1-1 .4L7.8 27.8C9.8 16.2 19.9 7.5 32 7.5c13.5 0 24.5 11 24.5 24.5 0 12.2-8.9 22.4-20.7 24.2z"/></svg>